<svg width="66" height="66" viewBox="0 0 66 66" fill="none" xmlns="http://www.w3.org/2000/svg">
<path d="M1 65H0V66H1V65ZM57 1L57 2L57 1ZM9 1V2V1ZM20 48L19 47.9998C19 48.2651 19.1053 48.5195 19.2928 48.707C19.4804 48.8946 19.7348 49 20 49V48ZM31.4006 18V19V18ZM20.0023 31.8654C19.45 31.8654 19.0023 32.3131 19.0023 32.8654C19.0023 33.4177 19.45 33.8654 20.0023 33.8654V31.8654ZM20.0023 32.6746L21.0023 32.6747V32.6746H20.0023ZM0 9V65H2V9H0ZM1 66H57V64H1V66ZM57 66C59.3252 66 61.5668 64.8474 63.2071 63.2071C64.8475 61.5667 66 59.3252 66 57H64C64 58.6748 63.1525 60.4332 61.7929 61.7929C60.4332 63.1525 58.6748 64 57 64V66ZM66 57V9H64V57H66ZM66 9C66 6.67475 64.8475 4.43322 63.2071 2.79288C61.5668 1.15254 59.3252 0 57 0L57 2C58.6748 2 60.4332 2.84745 61.7929 4.20709C63.1525 5.56674 64 7.32521 64 9H66ZM57 0H9V2H57V0ZM9 0C6.67477 0 4.43324 1.15254 2.79289 2.79288C1.15255 4.43322 0 6.67475 0 9H2C2 7.32521 2.84745 5.56674 4.20711 4.20709C5.56676 2.84745 7.32523 2 9 2L9 0ZM31.4006 19C34.345 19 36.4481 20.9998 36.4481 23.0883H38.4481C38.4481 19.5868 35.1136 17 31.4006 17V19ZM36.4481 23.0883V28.0485H38.4481V23.0883H36.4481ZM36.4481 28.0485C36.4481 30.0727 34.4172 31.8654 31.4006 31.8654V33.8654C35.03 33.8654 38.4481 31.612 38.4481 28.0485H36.4481ZM19.0023 32.6744L19 47.9998L21 48.0001L21.0023 32.6747L19.0023 32.6744ZM20.0023 33.8654H31.4006V31.8654H20.0023V33.8654ZM31.4006 33.8654C34.345 33.8654 36.4481 35.8652 36.4481 37.9537H38.4481C38.4481 34.4522 35.1136 31.8654 31.4006 31.8654V33.8654ZM36.4481 37.9537V42.9139H38.4481V37.9537H36.4481ZM36.4481 42.9139C36.4481 45.0003 34.3404 47 31.4006 47V49C35.1068 49 38.4481 46.4152 38.4481 42.9139H36.4481ZM42.9828 45.9717C42.9828 45.8122 43.0751 45.563 43.3121 45.3313C43.5478 45.1009 43.8129 45 44 45V43C43.1784 43 42.4349 43.392 41.9141 43.901C41.3948 44.4087 40.9828 45.1454 40.9828 45.9717H42.9828ZM40.9828 45.9717C40.9828 46.7981 41.3948 47.5348 41.9141 48.0425C42.4349 48.5515 43.1784 48.9435 44 48.9435V46.9435C43.8129 46.9435 43.5478 46.8426 43.3121 46.6122C43.0751 46.3805 42.9828 46.1313 42.9828 45.9717H40.9828ZM44 48.9435C44.8216 48.9435 45.5651 48.5515 46.0859 48.0425C46.6052 47.5348 47.0172 46.7981 47.0172 45.9717H45.0172C45.0172 46.1313 44.9249 46.3805 44.6878 46.6122C44.4522 46.8426 44.1871 46.9435 44 46.9435V48.9435ZM47.0172 45.9717C47.0172 45.1454 46.6052 44.4087 46.0859 43.901C45.5651 43.392 44.8216 43 44 43V45C44.1871 45 44.4522 45.1009 44.6878 45.3313C44.9249 45.563 45.0172 45.8122 45.0172 45.9717H47.0172ZM23 19C23.7479 19 25.8522 19 27.7628 19C28.7268 19 29.6209 19 30.2989 19C30.3827 19 30.4628 19 30.5387 19C30.6147 19 30.6865 19 30.7538 19C30.9192 19 30.9747 19 31.1011 19C31.1171 19 31.103 19 31.1188 19C31.1217 19 31.1246 19 31.1275 19C31.1304 19 31.1332 19 31.1361 19C31.1389 19 31.1417 19 31.1445 19C31.1473 19 31.15 19 31.1528 19C31.1555 19 31.1582 19 31.1609 19C31.1637 19 31.1663 19 31.169 19C31.1832 19 31.1707 19 31.1847 19C31.1873 19 31.1898 19 31.1924 19C31.1949 19 31.1974 19 31.1999 19C31.2024 19 31.2049 19 31.2073 19C31.2098 19 31.2122 19 31.2146 19C31.217 19 31.2194 19 31.2217 19C31.2241 19 31.2264 19 31.2287 19C31.2473 19 31.2644 19 31.2801 19C31.3136 19 31.2921 19 31.3227 19C31.3769 19 31.3389 19 31.3807 19C31.3928 19 31.3867 19 31.3955 19C31.396 19 31.3963 19 31.3967 19C31.3971 19 31.3974 19 31.3977 19C31.398 19 31.3983 19 31.3986 19C31.3988 19 31.3991 19 31.3993 19C31.3995 19 31.3997 19 31.3998 19C31.4 19 31.4001 19 31.4002 19C31.4003 19 31.4004 19 31.4005 19C31.4005 19 31.4006 19 31.4006 18C31.4006 17 31.4005 17 31.4005 17C31.4004 17 31.4003 17 31.4002 17C31.4001 17 31.4 17 31.3998 17C31.3997 17 31.3995 17 31.3993 17C31.3991 17 31.3988 17 31.3986 17C31.3983 17 31.398 17 31.3977 17C31.3974 17 31.3971 17 31.3967 17C31.3963 17 31.396 17 31.3955 17C31.3951 17 31.3947 17 31.3942 17C31.3938 17 31.3933 17 31.3927 17C31.3922 17 31.3917 17 31.3911 17C31.3905 17 31.39 17 31.3893 17C31.3887 17 31.3881 17 31.3874 17C31.3867 17 31.386 17 31.3853 17C31.3846 17 31.3839 17 31.3831 17C31.3823 17 31.3815 17 31.3807 17C31.3389 17 31.3769 17 31.3227 17C31.2921 17 31.3136 17 31.2801 17C31.2693 17 31.279 17 31.268 17C31.2625 17 31.2612 17 31.2555 17C31.2498 17 31.2483 17 31.2424 17C31.2401 17 31.2379 17 31.2356 17C31.2333 17 31.2311 17 31.2287 17C31.2264 17 31.2241 17 31.2217 17C31.2194 17 31.217 17 31.2146 17C31.2015 17 31.2132 17 31.1999 17C31.1974 17 31.1949 17 31.1924 17C31.1898 17 31.1873 17 31.1847 17C31.1707 17 31.1832 17 31.169 17C31.1663 17 31.1637 17 31.1609 17C31.1582 17 31.1555 17 31.1528 17C31.1379 17 31.1511 17 31.1361 17C31.1332 17 31.1304 17 31.1275 17C31.1246 17 31.1217 17 31.1188 17C31.103 17 31.1171 17 31.1011 17C30.9747 17 30.9192 17 30.7538 17C30.6865 17 30.6147 17 30.5387 17C30.4628 17 30.3827 17 30.2989 17C29.6209 17 28.7268 17 27.7628 17C25.8522 17 23.7479 17 23 17L23 19ZM19.0023 21C19.0023 21.0029 19.0023 21.0059 19.0023 21.0089C19.0023 21.0118 19.0023 21.0149 19.0023 21.0179C19.0023 21.021 19.0023 21.0241 19.0023 21.0272C19.0023 21.0303 19.0023 21.0335 19.0023 21.0367C19.0023 21.0399 19.0023 21.0431 19.0023 21.0464C19.0023 21.0496 19.0023 21.0529 19.0023 21.0562C19.0023 21.0596 19.0023 21.0629 19.0023 21.0663C19.0023 21.0697 19.0023 21.0731 19.0023 21.0766C19.0023 21.08 19.0023 21.0835 19.0023 21.087C19.0023 21.0905 19.0023 21.0941 19.0023 21.0976C19.0023 21.1012 19.0023 21.1048 19.0023 21.1085C19.0023 21.1121 19.0023 21.1158 19.0023 21.1195C19.0023 21.1232 19.0023 21.1269 19.0023 21.1307C19.0023 21.1345 19.0023 21.1383 19.0023 21.1421C19.0023 21.1459 19.0023 21.1498 19.0023 21.1537C19.0023 21.1576 19.0023 21.1615 19.0023 21.1654C19.0023 21.1694 19.0023 21.1734 19.0023 21.1774C19.0023 21.1814 19.0023 21.1854 19.0023 21.1895C19.0023 21.1936 19.0023 21.1977 19.0023 21.2018C19.0023 21.206 19.0023 21.2101 19.0023 21.2143C19.0023 21.2185 19.0023 21.2228 19.0023 21.227C19.0023 21.2313 19.0023 21.2356 19.0023 21.2399C19.0023 21.2442 19.0023 21.2485 19.0023 21.2529C19.0023 21.2573 19.0023 21.2617 19.0023 21.2661C19.0023 21.2706 19.0023 21.275 19.0023 21.2795C19.0023 21.284 19.0023 21.2886 19.0023 21.2931C19.0023 21.2977 19.0023 21.3023 19.0023 21.3069C19.0023 21.3115 19.0023 21.3161 19.0023 21.3208C19.0023 21.3255 19.0023 21.3302 19.0023 21.3349C19.0023 21.3396 19.0023 21.3444 19.0023 21.3492C19.0023 21.354 19.0023 21.3588 19.0023 21.3636C19.0023 21.3685 19.0023 21.3734 19.0023 21.3783C19.0023 21.3832 19.0023 21.3881 19.0023 21.3931C19.0023 21.398 19.0023 21.403 19.0023 21.408C19.0023 21.413 19.0023 21.4181 19.0023 21.4232C19.0023 21.4282 19.0023 21.4333 19.0023 21.4385C19.0023 21.4436 19.0023 21.4488 19.0023 21.454C19.0023 21.4591 19.0023 21.4644 19.0023 21.4696C19.0023 21.4748 19.0023 21.4801 19.0023 21.4854C19.0023 21.4907 19.0023 21.496 19.0023 21.5014C19.0023 21.5067 19.0023 21.5121 19.0023 21.5175C19.0023 21.5229 19.0023 21.5284 19.0023 21.5338C19.0023 21.5393 19.0023 21.5448 19.0023 21.5503C19.0023 21.5558 19.0023 21.5613 19.0023 21.5669C19.0023 21.5725 19.0023 21.5781 19.0023 21.5837C19.0023 21.5893 19.0023 21.595 19.0023 21.6007C19.0023 21.6063 19.0023 21.612 19.0023 21.6178C19.0023 21.6235 19.0023 21.6293 19.0023 21.635C19.0023 21.6408 19.0023 21.6466 19.0023 21.6525C19.0023 21.6583 19.0023 21.6642 19.0023 21.67C19.0023 21.6759 19.0023 21.6818 19.0023 21.6878C19.0023 21.6937 19.0023 21.6997 19.0023 21.7057C19.0023 21.7117 19.0023 21.7177 19.0023 21.7237C19.0023 21.7298 19.0023 21.7358 19.0023 21.7419C19.0023 21.748 19.0023 21.7542 19.0023 21.7603C19.0023 21.7664 19.0023 21.7726 19.0023 21.7788C19.0023 21.785 19.0023 21.7912 19.0023 21.7975C19.0023 21.8037 19.0023 21.81 19.0023 21.8163C19.0023 21.8226 19.0023 21.8289 19.0023 21.8352C19.0023 21.8416 19.0023 21.848 19.0023 21.8544C19.0023 21.8608 19.0023 21.8672 19.0023 21.8736C19.0023 21.8801 19.0023 21.8865 19.0023 21.893C19.0023 21.8995 19.0023 21.906 19.0023 21.9126C19.0023 21.9191 19.0023 21.9257 19.0023 21.9323C19.0023 21.9389 19.0023 21.9455 19.0023 21.9521C19.0023 21.9588 19.0023 21.9654 19.0023 21.9721C19.0023 21.9788 19.0023 21.9855 19.0023 21.9922C19.0023 21.999 19.0023 22.0057 19.0023 22.0125C19.0023 22.0193 19.0023 22.0261 19.0023 22.0329C19.0023 22.0397 19.0023 22.0466 19.0023 22.0535C19.0023 22.0603 19.0023 22.0672 19.0023 22.0742C19.0023 22.0811 19.0023 22.088 19.0023 22.095C19.0023 22.102 19.0023 22.1089 19.0023 22.116C19.0023 22.123 19.0023 22.13 19.0023 22.1371C19.0023 22.1441 19.0023 22.1512 19.0023 22.1583C19.0023 22.1654 19.0023 22.1725 19.0023 22.1797C19.0023 22.1868 19.0023 22.194 19.0023 22.2012C19.0023 22.2084 19.0023 22.2156 19.0023 22.2228C19.0023 22.2301 19.0023 22.2373 19.0023 22.2446C19.0023 22.2519 19.0023 22.2592 19.0023 22.2665C19.0023 22.2739 19.0023 22.2812 19.0023 22.2886C19.0023 22.2959 19.0023 22.3033 19.0023 22.3107C19.0023 22.3182 19.0023 22.3256 19.0023 22.333C19.0023 22.3405 19.0023 22.348 19.0023 22.3555C19.0023 22.363 19.0023 22.3705 19.0023 22.378C19.0023 22.3856 19.0023 22.3931 19.0023 22.4007C19.0023 22.4083 19.0023 22.4159 19.0023 22.4235C19.0023 22.4312 19.0023 22.4388 19.0023 22.4465C19.0023 22.4541 19.0023 22.4618 19.0023 22.4695C19.0023 22.4772 19.0023 22.485 19.0023 22.4927C19.0023 22.5005 19.0023 22.5082 19.0023 22.516C19.0023 22.5238 19.0023 22.5316 19.0023 22.5394C19.0023 22.5473 19.0023 22.5551 19.0023 22.563C19.0023 22.5709 19.0023 22.5788 19.0023 22.5867C19.0023 22.5946 19.0023 22.6025 19.0023 22.6105C19.0023 22.6184 19.0023 22.6264 19.0023 22.6344C19.0023 22.6424 19.0023 22.6504 19.0023 22.6584C19.0023 22.6664 19.0023 22.6745 19.0023 22.6825C19.0023 22.6906 19.0023 22.6987 19.0023 22.7068C19.0023 22.7149 19.0023 22.723 19.0023 22.7312C19.0023 22.7393 19.0023 22.7475 19.0023 22.7557C19.0023 22.7638 19.0023 22.772 19.0023 22.7803C19.0023 22.7885 19.0023 22.7967 19.0023 22.805C19.0023 22.8132 19.0023 22.8215 19.0023 22.8298C19.0023 22.8381 19.0023 22.8464 19.0023 22.8547C19.0023 22.8631 19.0023 22.8714 19.0023 22.8798C19.0023 22.8881 19.0023 22.8965 19.0023 22.9049C19.0023 22.9133 19.0023 22.9218 19.0023 22.9302C19.0023 22.9386 19.0023 22.9471 19.0023 22.9556C19.0023 22.964 19.0023 22.9725 19.0023 22.981C19.0023 22.9896 19.0023 22.9981 19.0023 23.0066C19.0023 23.0152 19.0023 23.0237 19.0023 23.0323C19.0023 23.0409 19.0023 23.0495 19.0023 23.0581C19.0023 23.0667 19.0023 23.0754 19.0023 23.084C19.0023 23.0927 19.0023 23.1013 19.0023 23.11C19.0023 23.1187 19.0023 23.1274 19.0023 23.1361C19.0023 23.1448 19.0023 23.1536 19.0023 23.1623C19.0023 23.1711 19.0023 23.1798 19.0023 23.1886C19.0023 23.1974 19.0023 23.2062 19.0023 23.215C19.0023 23.2238 19.0023 23.2327 19.0023 23.2415C19.0023 23.2504 19.0023 23.2592 19.0023 23.2681C19.0023 23.277 19.0023 23.2859 19.0023 23.2948C19.0023 23.3037 19.0023 23.3126 19.0023 23.3216C19.0023 23.3305 19.0023 23.3395 19.0023 23.3485C19.0023 23.3574 19.0023 23.3664 19.0023 23.3754C19.0023 23.3845 19.0023 23.3935 19.0023 23.4025C19.0023 23.4116 19.0023 23.4206 19.0023 23.4297C19.0023 23.4388 19.0023 23.4478 19.0023 23.4569C19.0023 23.466 19.0023 23.4752 19.0023 23.4843C19.0023 23.4934 19.0023 23.5026 19.0023 23.5117C19.0023 23.5209 19.0023 23.5301 19.0023 23.5392C19.0023 23.5484 19.0023 23.5576 19.0023 23.5669C19.0023 23.5761 19.0023 23.5853 19.0023 23.5946C19.0023 23.6038 19.0023 23.6131 19.0023 23.6223C19.0023 23.6316 19.0023 23.6409 19.0023 23.6502C19.0023 23.6595 19.0023 23.6688 19.0023 23.6782C19.0023 23.6875 19.0023 23.6968 19.0023 23.7062C19.0023 23.7156 19.0023 23.7249 19.0023 23.7343C19.0023 23.7437 19.0023 23.7531 19.0023 23.7625C19.0023 23.772 19.0023 23.7814 19.0023 23.7908C19.0023 23.8003 19.0023 23.8097 19.0023 23.8192C19.0023 23.8287 19.0023 23.8381 19.0023 23.8476C19.0023 23.8571 19.0023 23.8666 19.0023 23.8762C19.0023 23.8857 19.0023 23.8952 19.0023 23.9048C19.0023 23.9143 19.0023 23.9239 19.0023 23.9335C19.0023 23.943 19.0023 23.9526 19.0023 23.9622C19.0023 23.9718 19.0023 23.9814 19.0023 23.991C19.0023 24.0007 19.0023 24.0103 19.0023 24.02C19.0023 24.0296 19.0023 24.0393 19.0023 24.0489C19.0023 24.0586 19.0023 24.0683 19.0023 24.078C19.0023 24.0877 19.0023 24.0974 19.0023 24.1071C19.0023 24.1168 19.0023 24.1266 19.0023 24.1363C19.0023 24.1461 19.0023 24.1558 19.0023 24.1656C19.0023 24.1754 19.0023 24.1851 19.0023 24.1949C19.0023 24.2047 19.0023 24.2145 19.0023 24.2243C19.0023 24.2342 19.0023 24.244 19.0023 24.2538C19.0023 24.2636 19.0023 24.2735 19.0023 24.2834C19.0023 24.2932 19.0023 24.3031 19.0023 24.313C19.0023 24.3228 19.0023 24.3327 19.0023 24.3426C19.0023 24.3525 19.0023 24.3625 19.0023 24.3724C19.0023 24.3823 19.0023 24.3922 19.0023 24.4022C19.0023 24.4121 19.0023 24.4221 19.0023 24.432C19.0023 24.442 19.0023 24.452 19.0023 24.462C19.0023 24.472 19.0023 24.482 19.0023 24.492C19.0023 24.502 19.0023 24.512 19.0023 24.522C19.0023 24.532 19.0023 24.5421 19.0023 24.5521C19.0023 24.5622 19.0023 24.5722 19.0023 24.5823C19.0023 24.5924 19.0023 24.6024 19.0023 24.6125C19.0023 24.6226 19.0023 24.6327 19.0023 24.6428C19.0023 24.6529 19.0023 24.663 19.0023 24.6731C19.0023 24.6833 19.0023 24.6934 19.0023 24.7035C19.0023 24.7137 19.0023 24.7238 19.0023 24.734C19.0023 24.7441 19.0023 24.7543 19.0023 24.7645C19.0023 24.7747 19.0023 24.7848 19.0023 24.795C19.0023 24.8052 19.0023 24.8154 19.0023 24.8256C19.0023 24.8358 19.0023 24.8461 19.0023 24.8563C19.0023 24.8665 19.0023 24.8768 19.0023 24.887C19.0023 24.8972 19.0023 24.9075 19.0023 24.9178C19.0023 24.928 19.0023 24.9383 19.0023 24.9486C19.0023 24.9588 19.0023 24.9691 19.0023 24.9794C19.0023 24.9897 19.0023 25 19.0023 25.0103C19.0023 25.0206 19.0023 25.0309 19.0023 25.0413C19.0023 25.0516 19.0023 25.0619 19.0023 25.0723C19.0023 25.0826 19.0023 25.0929 19.0023 25.1033C19.0023 25.1136 19.0023 25.124 19.0023 25.1344C19.0023 25.1447 19.0023 25.1551 19.0023 25.1655C19.0023 25.1759 19.0023 25.1863 19.0023 25.1967C19.0023 25.207 19.0023 25.2175 19.0023 25.2279C19.0023 25.2383 19.0023 25.2487 19.0023 25.2591C19.0023 25.2695 19.0023 25.28 19.0023 25.2904C19.0023 25.3008 19.0023 25.3113 19.0023 25.3217C19.0023 25.3322 19.0023 25.3426 19.0023 25.3531C19.0023 25.3635 19.0023 25.374 19.0023 25.3845C19.0023 25.3949 19.0023 25.4054 19.0023 25.4159C19.0023 25.4264 19.0023 25.4369 19.0023 25.4474C19.0023 25.4579 19.0023 25.4684 19.0023 25.4789C19.0023 25.4894 19.0023 25.4999 19.0023 25.5104C19.0023 25.5209 19.0023 25.5314 19.0023 25.542C19.0023 25.5525 19.0023 25.563 19.0023 25.5736C19.0023 25.5841 19.0023 25.5947 19.0023 25.6052C19.0023 25.6158 19.0023 25.6263 19.0023 25.6369C19.0023 25.6474 19.0023 25.658 19.0023 25.6686C19.0023 25.6791 19.0023 25.6897 19.0023 25.7003C19.0023 25.7109 19.0023 25.7214 19.0023 25.732C19.0023 25.7426 19.0023 25.7532 19.0023 25.7638C19.0023 25.7744 19.0023 25.785 19.0023 25.7956C19.0023 25.8062 19.0023 25.8168 19.0023 25.8274C19.0023 25.838 19.0023 25.8486 19.0023 25.8593C19.0023 25.8699 19.0023 25.8805 19.0023 25.8911C19.0023 25.9018 19.0023 25.9124 19.0023 25.923C19.0023 25.9337 19.0023 25.9443 19.0023 25.9549C19.0023 25.9656 19.0023 25.9762 19.0023 25.9869C19.0023 25.9975 19.0023 26.0082 19.0023 26.0188C19.0023 26.0295 19.0023 26.0401 19.0023 26.0508C19.0023 26.0615 19.0023 26.0721 19.0023 26.0828C19.0023 26.0935 19.0023 26.1041 19.0023 26.1148C19.0023 26.1255 19.0023 26.1362 19.0023 26.1468C19.0023 26.1575 19.0023 26.1682 19.0023 26.1789C19.0023 26.1896 19.0023 26.2002 19.0023 26.2109C19.0023 26.2216 19.0023 26.2323 19.0023 26.243C19.0023 26.2537 19.0023 26.2644 19.0023 26.2751C19.0023 26.2858 19.0023 26.2965 19.0023 26.3072C19.0023 26.3179 19.0023 26.3286 19.0023 26.3393C19.0023 26.35 19.0023 26.3607 19.0023 26.3714C19.0023 26.3821 19.0023 26.3928 19.0023 26.4035C19.0023 26.4142 19.0023 26.425 19.0023 26.4357C19.0023 26.4464 19.0023 26.4571 19.0023 26.4678C19.0023 26.4785 19.0023 26.4893 19.0023 26.5C19.0023 26.5107 19.0023 26.5214 19.0023 26.5321C19.0023 26.5429 19.0023 26.5536 19.0023 26.5643C19.0023 26.575 19.0023 26.5857 19.0023 26.5965C19.0023 26.6072 19.0023 26.6179 19.0023 26.6286C19.0023 26.6394 19.0023 26.6501 19.0023 26.6608C19.0023 26.6715 19.0023 26.6823 19.0023 26.693C19.0023 26.7037 19.0023 26.7144 19.0023 26.7252C19.0023 26.7359 19.0023 26.7466 19.0023 26.7574C19.0023 26.7681 19.0023 26.7788 19.0023 26.7895C19.0023 26.8003 19.0023 26.811 19.0023 26.8217C19.0023 26.8324 19.0023 26.8432 19.0023 26.8539C19.0023 26.8646 19.0023 26.8753 19.0023 26.8861C19.0023 26.8968 19.0023 26.9075 19.0023 26.9182C19.0023 26.929 19.0023 26.9397 19.0023 26.9504C19.0023 26.9611 19.0023 26.9718 19.0023 26.9826C19.0023 26.9933 19.0023 27.004 19.0023 27.0147C19.0023 27.0254 19.0023 27.0362 19.0023 27.0469C19.0023 27.0576 19.0023 27.0683 19.0023 27.079C19.0023 27.0897 19.0023 27.1004 19.0023 27.1111C19.0023 27.1218 19.0023 27.1326 19.0023 27.1433C19.0023 27.154 19.0023 27.1647 19.0023 27.1754C19.0023 27.1861 19.0023 27.1968 19.0023 27.2075C19.0023 27.2182 19.0023 27.2289 19.0023 27.2396C19.0023 27.2502 19.0023 27.2609 19.0023 27.2716C19.0023 27.2823 19.0023 27.293 19.0023 27.3037C19.0023 27.3144 19.0023 27.3251 19.0023 27.3357C19.0023 27.3464 19.0023 27.3571 19.0023 27.3678C19.0023 27.3784 19.0023 27.3891 19.0023 27.3998C19.0023 27.4104 19.0023 27.4211 19.0023 27.4318C19.0023 27.4424 19.0023 27.4531 19.0023 27.4638C19.0023 27.4744 19.0023 27.4851 19.0023 27.4957C19.0023 27.5064 19.0023 27.517 19.0023 27.5277C19.0023 27.5383 19.0023 27.5489 19.0023 27.5596C19.0023 27.5702 19.0023 27.5808 19.0023 27.5915C19.0023 27.6021 19.0023 27.6127 19.0023 27.6234C19.0023 27.634 19.0023 27.6446 19.0023 27.6552C19.0023 27.6658 19.0023 27.6764 19.0023 27.687C19.0023 27.6976 19.0023 27.7082 19.0023 27.7188C19.0023 27.7294 19.0023 27.74 19.0023 27.7506C19.0023 27.7612 19.0023 27.7718 19.0023 27.7824C19.0023 27.793 19.0023 27.8035 19.0023 27.8141C19.0023 27.8247 19.0023 27.8352 19.0023 27.8458C19.0023 27.8564 19.0023 27.8669 19.0023 27.8775C19.0023 27.888 19.0023 27.8986 19.0023 27.9091C19.0023 27.9196 19.0023 27.9302 19.0023 27.9407C19.0023 27.9512 19.0023 27.9618 19.0023 27.9723C19.0023 27.9828 19.0023 27.9933 19.0023 28.0038C19.0023 28.0143 19.0023 28.0248 19.0023 28.0353C19.0023 28.0458 19.0023 28.0563 19.0023 28.0668C19.0023 28.0773 19.0023 28.0878 19.0023 28.0983C19.0023 28.1087 19.0023 28.1192 19.0023 28.1297C19.0023 28.1401 19.0023 28.1506 19.0023 28.161C19.0023 28.1715 19.0023 28.1819 19.0023 28.1924C19.0023 28.2028 19.0023 28.2132 19.0023 28.2237C19.0023 28.2341 19.0023 28.2445 19.0023 28.2549C19.0023 28.2653 19.0023 28.2757 19.0023 28.2861C19.0023 28.2965 19.0023 28.3069 19.0023 28.3173C19.0023 28.3277 19.0023 28.3381 19.0023 28.3484C19.0023 28.3588 19.0023 28.3692 19.0023 28.3795C19.0023 28.3899 19.0023 28.4002 19.0023 28.4106C19.0023 28.4209 19.0023 28.4313 19.0023 28.4416C19.0023 28.4519 19.0023 28.4622 19.0023 28.4725C19.0023 28.4828 19.0023 28.4932 19.0023 28.5034C19.0023 28.5137 19.0023 28.524 19.0023 28.5343C19.0023 28.5446 19.0023 28.5549 19.0023 28.5651C19.0023 28.5754 19.0023 28.5857 19.0023 28.5959C19.0023 28.6061 19.0023 28.6164 19.0023 28.6266C19.0023 28.6369 19.0023 28.6471 19.0023 28.6573C19.0023 28.6675 19.0023 28.6777 19.0023 28.6879C19.0023 28.6981 19.0023 28.7083 19.0023 28.7185C19.0023 28.7287 19.0023 28.7388 19.0023 28.749C19.0023 28.7592 19.0023 28.7693 19.0023 28.7795C19.0023 28.7896 19.0023 28.7997 19.0023 28.8099C19.0023 28.82 19.0023 28.8301 19.0023 28.8402C19.0023 28.8503 19.0023 28.8604 19.0023 28.8705C19.0023 28.8806 19.0023 28.8907 19.0023 28.9008C19.0023 28.9108 19.0023 28.9209 19.0023 28.9309C19.0023 28.941 19.0023 28.951 19.0023 28.9611C19.0023 28.9711 19.0023 28.9811 19.0023 28.9911C19.0023 29.0011 19.0023 29.0111 19.0023 29.0211C19.0023 29.0311 19.0023 29.0411 19.0023 29.0511C19.0023 29.061 19.0023 29.071 19.0023 29.0809C19.0023 29.0909 19.0023 29.1008 19.0023 29.1108C19.0023 29.1207 19.0023 29.1306 19.0023 29.1405C19.0023 29.1504 19.0023 29.1603 19.0023 29.1702C19.0023 29.1801 19.0023 29.19 19.0023 29.1998C19.0023 29.2097 19.0023 29.2196 19.0023 29.2294C19.0023 29.2392 19.0023 29.2491 19.0023 29.2589C19.0023 29.2687 19.0023 29.2785 19.0023 29.2883C19.0023 29.2981 19.0023 29.3079 19.0023 29.3177C19.0023 29.3274 19.0023 29.3372 19.0023 29.347C19.0023 29.3567 19.0023 29.3665 19.0023 29.3762C19.0023 29.3859 19.0023 29.3956 19.0023 29.4053C19.0023 29.415 19.0023 29.4247 19.0023 29.4344C19.0023 29.4441 19.0023 29.4537 19.0023 29.4634C19.0023 29.4731 19.0023 29.4827 19.0023 29.4923C19.0023 29.502 19.0023 29.5116 19.0023 29.5212C19.0023 29.5308 19.0023 29.5404 19.0023 29.55C19.0023 29.5595 19.0023 29.5691 19.0023 29.5787C19.0023 29.5882 19.0023 29.5978 19.0023 29.6073C19.0023 29.6168 19.0023 29.6263 19.0023 29.6358C19.0023 29.6453 19.0023 29.6548 19.0023 29.6643C19.0023 29.6738 19.0023 29.6832 19.0023 29.6927C19.0023 29.7021 19.0023 29.7116 19.0023 29.721C19.0023 29.7304 19.0023 29.7398 19.0023 29.7492C19.0023 29.7586 19.0023 29.768 19.0023 29.7774C19.0023 29.7867 19.0023 29.7961 19.0023 29.8054C19.0023 29.8148 19.0023 29.8241 19.0023 29.8334C19.0023 29.8427 19.0023 29.852 19.0023 29.8613C19.0023 29.8706 19.0023 29.8799 19.0023 29.8891C19.0023 29.8984 19.0023 29.9076 19.0023 29.9168C19.0023 29.9261 19.0023 29.9353 19.0023 29.9445C19.0023 29.9537 19.0023 29.9628 19.0023 29.972C19.0023 29.9812 19.0023 29.9903 19.0023 29.9995C19.0023 30.0086 19.0023 30.0177 19.0023 30.0268C19.0023 30.0359 19.0023 30.045 19.0023 30.0541C19.0023 30.0632 19.0023 30.0723 19.0023 30.0813C19.0023 30.0903 19.0023 30.0994 19.0023 30.1084C19.0023 30.1174 19.0023 30.1264 19.0023 30.1354C19.0023 30.1444 19.0023 30.1534 19.0023 30.1623C19.0023 30.1713 19.0023 30.1802 19.0023 30.1891C19.0023 30.198 19.0023 30.2069 19.0023 30.2158C19.0023 30.2247 19.0023 30.2336 19.0023 30.2425C19.0023 30.2513 19.0023 30.2602 19.0023 30.269C19.0023 30.2778 19.0023 30.2866 19.0023 30.2954C19.0023 30.3042 19.0023 30.313 19.0023 30.3217C19.0023 30.3305 19.0023 30.3392 19.0023 30.348C19.0023 30.3567 19.0023 30.3654 19.0023 30.3741C19.0023 30.3828 19.0023 30.3915 19.0023 30.4001C19.0023 30.4088 19.0023 30.4174 19.0023 30.426C19.0023 30.4347 19.0023 30.4433 19.0023 30.4519C19.0023 30.4604 19.0023 30.469 19.0023 30.4776C19.0023 30.4861 19.0023 30.4947 19.0023 30.5032C19.0023 30.5117 19.0023 30.5202 19.0023 30.5287C19.0023 30.5372 19.0023 30.5456 19.0023 30.5541C19.0023 30.5625 19.0023 30.571 19.0023 30.5794C19.0023 30.5878 19.0023 30.5962 19.0023 30.6046C19.0023 30.6129 19.0023 30.6213 19.0023 30.6296C19.0023 30.638 19.0023 30.6463 19.0023 30.6546C19.0023 30.6629 19.0023 30.6712 19.0023 30.6795C19.0023 30.6877 19.0023 30.696 19.0023 30.7042C19.0023 30.7124 19.0023 30.7206 19.0023 30.7288C19.0023 30.737 19.0023 30.7452 19.0023 30.7533C19.0023 30.7615 19.0023 30.7696 19.0023 30.7777C19.0023 30.7859 19.0023 30.794 19.0023 30.802C19.0023 30.8101 19.0023 30.8182 19.0023 30.8262C19.0023 30.8342 19.0023 30.8423 19.0023 30.8503C19.0023 30.8583 19.0023 30.8662 19.0023 30.8742C19.0023 30.8822 19.0023 30.8901 19.0023 30.898C19.0023 30.9059 19.0023 30.9138 19.0023 30.9217C19.0023 30.9296 19.0023 30.9375 19.0023 30.9453C19.0023 30.9531 19.0023 30.961 19.0023 30.9688C19.0023 30.9766 19.0023 30.9843 19.0023 30.9921C19.0023 30.9999 19.0023 31.0076 19.0023 31.0153C19.0023 31.023 19.0023 31.0307 19.0023 31.0384C19.0023 31.0461 19.0023 31.0537 19.0023 31.0614C19.0023 31.069 19.0023 31.0766 19.0023 31.0842C19.0023 31.0918 19.0023 31.0994 19.0023 31.1069C19.0023 31.1145 19.0023 31.122 19.0023 31.1295C19.0023 31.137 19.0023 31.1445 19.0023 31.152C19.0023 31.1595 19.0023 31.1669 19.0023 31.1743C19.0023 31.1817 19.0023 31.1891 19.0023 31.1965C19.0023 31.2039 19.0023 31.2113 19.0023 31.2186C19.0023 31.2259 19.0023 31.2333 19.0023 31.2405C19.0023 31.2478 19.0023 31.2551 19.0023 31.2624C19.0023 31.2696 19.0023 31.2768 19.0023 31.284C19.0023 31.2912 19.0023 31.2984 19.0023 31.3056C19.0023 31.3127 19.0023 31.3199 19.0023 31.327C19.0023 31.3341 19.0023 31.3412 19.0023 31.3483C19.0023 31.3553 19.0023 31.3624 19.0023 31.3694C19.0023 31.3764 19.0023 31.3834 19.0023 31.3904C19.0023 31.3974 19.0023 31.4044 19.0023 31.4113C19.0023 31.4182 19.0023 31.4251 19.0023 31.432C19.0023 31.4389 19.0023 31.4458 19.0023 31.4526C19.0023 31.4594 19.0023 31.4663 19.0023 31.4731C19.0023 31.4798 19.0023 31.4866 19.0023 31.4934C19.0023 31.5001 19.0023 31.5068 19.0023 31.5135C19.0023 31.5202 19.0023 31.5269 19.0023 31.5335C19.0023 31.5402 19.0023 31.5468 19.0023 31.5534C19.0023 31.56 19.0023 31.5666 19.0023 31.5732C19.0023 31.5797 19.0023 31.5862 19.0023 31.5928C19.0023 31.5993 19.0023 31.6057 19.0023 31.6122C19.0023 31.6187 19.0023 31.6251 19.0023 31.6315C19.0023 31.6379 19.0023 31.6443 19.0023 31.6506C19.0023 31.657 19.0023 31.6633 19.0023 31.6696C19.0023 31.6759 19.0023 31.6822 19.0023 31.6885C19.0023 31.6948 19.0023 31.701 19.0023 31.7072C19.0023 31.7134 19.0023 31.7196 19.0023 31.7257C19.0023 31.7319 19.0023 31.738 19.0023 31.7441C19.0023 31.7502 19.0023 31.7563 19.0023 31.7624C19.0023 31.7684 19.0023 31.7745 19.0023 31.7805C19.0023 31.7865 19.0023 31.7925 19.0023 31.7984C19.0023 31.8044 19.0023 31.8103 19.0023 31.8162C19.0023 31.8221 19.0023 31.828 19.0023 31.8338C19.0023 31.8397 19.0023 31.8455 19.0023 31.8513C19.0023 31.8571 19.0023 31.8629 19.0023 31.8686C19.0023 31.8743 19.0023 31.8801 19.0023 31.8857C19.0023 31.8914 19.0023 31.8971 19.0023 31.9027C19.0023 31.9084 19.0023 31.914 19.0023 31.9196C19.0023 31.9252 19.0023 31.9307 19.0023 31.9362C19.0023 31.9418 19.0023 31.9473 19.0023 31.9527C19.0023 31.9582 19.0023 31.9637 19.0023 31.9691C19.0023 31.9745 19.0023 31.9799 19.0023 31.9853C19.0023 31.9906 19.0023 31.996 19.0023 32.0013C19.0023 32.0066 19.0023 32.0119 19.0023 32.0171C19.0023 32.0224 19.0023 32.0276 19.0023 32.0328C19.0023 32.038 19.0023 32.0432 19.0023 32.0483C19.0023 32.0535 19.0023 32.0586 19.0023 32.0637C19.0023 32.0688 19.0023 32.0738 19.0023 32.0789C19.0023 32.0839 19.0023 32.0889 19.0023 32.0939C19.0023 32.0989 19.0023 32.1038 19.0023 32.1087C19.0023 32.1136 19.0023 32.1185 19.0023 32.1234C19.0023 32.1283 19.0023 32.1331 19.0023 32.1379C19.0023 32.1427 19.0023 32.1475 19.0023 32.1522C19.0023 32.157 19.0023 32.1617 19.0023 32.1664C19.0023 32.1711 19.0023 32.1757 19.0023 32.1803C19.0023 32.185 19.0023 32.1896 19.0023 32.1941C19.0023 32.1987 19.0023 32.2033 19.0023 32.2078C19.0023 32.2123 19.0023 32.2168 19.0023 32.2212C19.0023 32.2257 19.0023 32.2301 19.0023 32.2345C19.0023 32.2389 19.0023 32.2432 19.0023 32.2476C19.0023 32.2519 19.0023 32.2562 19.0023 32.2605C19.0023 32.2647 19.0023 32.269 19.0023 32.2732C19.0023 32.2774 19.0023 32.2816 19.0023 32.2857C19.0023 32.2899 19.0023 32.294 19.0023 32.2981C19.0023 32.3022 19.0023 32.3063 19.0023 32.3103C19.0023 32.3143 19.0023 32.3183 19.0023 32.3223C19.0023 32.3263 19.0023 32.3302 19.0023 32.3341C19.0023 32.338 19.0023 32.3419 19.0023 32.3457C19.0023 32.3496 19.0023 32.3534 19.0023 32.3572C19.0023 32.361 19.0023 32.3647 19.0023 32.3684C19.0023 32.3721 19.0023 32.3758 19.0023 32.3795C19.0023 32.3831 19.0023 32.3868 19.0023 32.3904C19.0023 32.394 19.0023 32.3975 19.0023 32.4011C19.0023 32.4046 19.0023 32.4081 19.0023 32.4115C19.0023 32.415 19.0023 32.4184 19.0023 32.4219C19.0023 32.4253 19.0023 32.4286 19.0023 32.432C19.0023 32.4353 19.0023 32.4386 19.0023 32.4419C19.0023 32.4452 19.0023 32.4484 19.0023 32.4516C19.0023 32.4548 19.0023 32.458 19.0023 32.4611C19.0023 32.4643 19.0023 32.4674 19.0023 32.4705C19.0023 32.4735 19.0023 32.4766 19.0023 32.4796C19.0023 32.4826 19.0023 32.4856 19.0023 32.4885C19.0023 32.4915 19.0023 32.4944 19.0023 32.4973C19.0023 32.5002 19.0023 32.503 19.0023 32.5058C19.0023 32.5086 19.0023 32.5114 19.0023 32.5142C19.0023 32.5169 19.0023 32.5196 19.0023 32.5223C19.0023 32.525 19.0023 32.5276 19.0023 32.5302C19.0023 32.5329 19.0023 32.5354 19.0023 32.538C19.0023 32.5405 19.0023 32.543 19.0023 32.5455C19.0023 32.548 19.0023 32.5504 19.0023 32.5528C19.0023 32.5552 19.0023 32.5576 19.0023 32.56C19.0023 32.5623 19.0023 32.5646 19.0023 32.5669C19.0023 32.5692 19.0023 32.5714 19.0023 32.5736C19.0023 32.5758 19.0023 32.578 19.0023 32.5801C19.0023 32.5822 19.0023 32.5843 19.0023 32.5864C19.0023 32.5885 19.0023 32.5905 19.0023 32.5925C19.0023 32.5945 19.0023 32.5964 19.0023 32.5984C19.0023 32.6003 19.0023 32.6022 19.0023 32.604C19.0023 32.6059 19.0023 32.6077 19.0023 32.6095C19.0023 32.6113 19.0023 32.613 19.0023 32.6147C19.0023 32.6164 19.0023 32.6181 19.0023 32.6197C19.0023 32.6214 19.0023 32.623 19.0023 32.6245C19.0023 32.6261 19.0023 32.6276 19.0023 32.6291C19.0023 32.6306 19.0023 32.6321 19.0023 32.6335C19.0023 32.6349 19.0023 32.6363 19.0023 32.6377C19.0023 32.639 19.0023 32.6404 19.0023 32.6416C19.0023 32.6429 19.0023 32.6442 19.0023 32.6454C19.0023 32.6466 19.0023 32.6477 19.0023 32.6489C19.0023 32.65 19.0023 32.6511 19.0023 32.6522C19.0023 32.6532 19.0023 32.6542 19.0023 32.6552C19.0023 32.6562 19.0023 32.6572 19.0023 32.6581C19.0023 32.659 19.0023 32.6599 19.0023 32.6607C19.0023 32.6615 19.0023 32.6623 19.0023 32.6631C19.0023 32.6639 19.0023 32.6646 19.0023 32.6653C19.0023 32.666 19.0023 32.6666 19.0023 32.6672C19.0023 32.6678 19.0023 32.6684 19.0023 32.6689C19.0023 32.6695 19.0023 32.67 19.0023 32.6704C19.0023 32.6709 19.0023 32.6713 19.0023 32.6717C19.0023 32.6721 19.0023 32.6724 19.0023 32.6727C19.0023 32.6731 19.0023 32.6733 19.0023 32.6736C19.0023 32.6738 19.0023 32.674 19.0023 32.6741C19.0023 32.6743 19.0023 32.6744 19.0023 32.6745C19.0023 32.6746 19.0023 32.6746 20.0023 32.6746C21.0023 32.6746 21.0023 32.6746 21.0023 32.6745C21.0023 32.6744 21.0023 32.6743 21.0023 32.6741C21.0023 32.674 21.0023 32.6738 21.0023 32.6736C21.0023 32.6733 21.0023 32.6731 21.0023 32.6727C21.0023 32.6724 21.0023 32.6721 21.0023 32.6717C21.0023 32.6713 21.0023 32.6709 21.0023 32.6704C21.0023 32.67 21.0023 32.6695 21.0023 32.6689C21.0023 32.6684 21.0023 32.6678 21.0023 32.6672C21.0023 32.6666 21.0023 32.666 21.0023 32.6653C21.0023 32.6646 21.0023 32.6639 21.0023 32.6631C21.0023 32.6623 21.0023 32.6615 21.0023 32.6607C21.0023 32.6599 21.0023 32.659 21.0023 32.6581C21.0023 32.6572 21.0023 32.6562 21.0023 32.6552C21.0023 32.6542 21.0023 32.6532 21.0023 32.6522C21.0023 32.6511 21.0023 32.65 21.0023 32.6489C21.0023 32.6477 21.0023 32.6466 21.0023 32.6454C21.0023 32.6442 21.0023 32.6429 21.0023 32.6416C21.0023 32.6404 21.0023 32.639 21.0023 32.6377C21.0023 32.6363 21.0023 32.6349 21.0023 32.6335C21.0023 32.6321 21.0023 32.6306 21.0023 32.6291C21.0023 32.6276 21.0023 32.6261 21.0023 32.6245C21.0023 32.623 21.0023 32.6214 21.0023 32.6197C21.0023 32.6181 21.0023 32.6164 21.0023 32.6147C21.0023 32.613 21.0023 32.6113 21.0023 32.6095C21.0023 32.6077 21.0023 32.6059 21.0023 32.604C21.0023 32.6022 21.0023 32.6003 21.0023 32.5984C21.0023 32.5964 21.0023 32.5945 21.0023 32.5925C21.0023 32.5905 21.0023 32.5885 21.0023 32.5864C21.0023 32.5843 21.0023 32.5822 21.0023 32.5801C21.0023 32.578 21.0023 32.5758 21.0023 32.5736C21.0023 32.5714 21.0023 32.5692 21.0023 32.5669C21.0023 32.5646 21.0023 32.5623 21.0023 32.56C21.0023 32.5576 21.0023 32.5552 21.0023 32.5528C21.0023 32.5504 21.0023 32.548 21.0023 32.5455C21.0023 32.543 21.0023 32.5405 21.0023 32.538C21.0023 32.5354 21.0023 32.5329 21.0023 32.5302C21.0023 32.5276 21.0023 32.525 21.0023 32.5223C21.0023 32.5196 21.0023 32.5169 21.0023 32.5142C21.0023 32.5114 21.0023 32.5086 21.0023 32.5058C21.0023 32.503 21.0023 32.5002 21.0023 32.4973C21.0023 32.4944 21.0023 32.4915 21.0023 32.4885C21.0023 32.4856 21.0023 32.4826 21.0023 32.4796C21.0023 32.4766 21.0023 32.4735 21.0023 32.4705C21.0023 32.4674 21.0023 32.4643 21.0023 32.4611C21.0023 32.458 21.0023 32.4548 21.0023 32.4516C21.0023 32.4484 21.0023 32.4452 21.0023 32.4419C21.0023 32.4386 21.0023 32.4353 21.0023 32.432C21.0023 32.4286 21.0023 32.4253 21.0023 32.4219C21.0023 32.4184 21.0023 32.415 21.0023 32.4115C21.0023 32.4081 21.0023 32.4046 21.0023 32.4011C21.0023 32.3975 21.0023 32.394 21.0023 32.3904C21.0023 32.3868 21.0023 32.3831 21.0023 32.3795C21.0023 32.3758 21.0023 32.3721 21.0023 32.3684C21.0023 32.3647 21.0023 32.361 21.0023 32.3572C21.0023 32.3534 21.0023 32.3496 21.0023 32.3457C21.0023 32.3419 21.0023 32.338 21.0023 32.3341C21.0023 32.3302 21.0023 32.3263 21.0023 32.3223C21.0023 32.3183 21.0023 32.3143 21.0023 32.3103C21.0023 32.3063 21.0023 32.3022 21.0023 32.2981C21.0023 32.294 21.0023 32.2899 21.0023 32.2857C21.0023 32.2816 21.0023 32.2774 21.0023 32.2732C21.0023 32.269 21.0023 32.2647 21.0023 32.2605C21.0023 32.2562 21.0023 32.2519 21.0023 32.2476C21.0023 32.2432 21.0023 32.2389 21.0023 32.2345C21.0023 32.2301 21.0023 32.2257 21.0023 32.2212C21.0023 32.2168 21.0023 32.2123 21.0023 32.2078C21.0023 32.2033 21.0023 32.1987 21.0023 32.1941C21.0023 32.1896 21.0023 32.185 21.0023 32.1803C21.0023 32.1757 21.0023 32.1711 21.0023 32.1664C21.0023 32.1617 21.0023 32.157 21.0023 32.1522C21.0023 32.1475 21.0023 32.1427 21.0023 32.1379C21.0023 32.1331 21.0023 32.1283 21.0023 32.1234C21.0023 32.1185 21.0023 32.1136 21.0023 32.1087C21.0023 32.1038 21.0023 32.0989 21.0023 32.0939C21.0023 32.0889 21.0023 32.0839 21.0023 32.0789C21.0023 32.0738 21.0023 32.0688 21.0023 32.0637C21.0023 32.0586 21.0023 32.0535 21.0023 32.0483C21.0023 32.0432 21.0023 32.038 21.0023 32.0328C21.0023 32.0276 21.0023 32.0224 21.0023 32.0171C21.0023 32.0119 21.0023 32.0066 21.0023 32.0013C21.0023 31.996 21.0023 31.9906 21.0023 31.9853C21.0023 31.9799 21.0023 31.9745 21.0023 31.9691C21.0023 31.9637 21.0023 31.9582 21.0023 31.9527C21.0023 31.9473 21.0023 31.9418 21.0023 31.9362C21.0023 31.9307 21.0023 31.9252 21.0023 31.9196C21.0023 31.914 21.0023 31.9084 21.0023 31.9027C21.0023 31.8971 21.0023 31.8914 21.0023 31.8857C21.0023 31.8801 21.0023 31.8743 21.0023 31.8686C21.0023 31.8629 21.0023 31.8571 21.0023 31.8513C21.0023 31.8455 21.0023 31.8397 21.0023 31.8338C21.0023 31.828 21.0023 31.8221 21.0023 31.8162C21.0023 31.8103 21.0023 31.8044 21.0023 31.7984C21.0023 31.7925 21.0023 31.7865 21.0023 31.7805C21.0023 31.7745 21.0023 31.7684 21.0023 31.7624C21.0023 31.7563 21.0023 31.7502 21.0023 31.7441C21.0023 31.738 21.0023 31.7319 21.0023 31.7257C21.0023 31.7196 21.0023 31.7134 21.0023 31.7072C21.0023 31.701 21.0023 31.6948 21.0023 31.6885C21.0023 31.6822 21.0023 31.6759 21.0023 31.6696C21.0023 31.6633 21.0023 31.657 21.0023 31.6506C21.0023 31.6443 21.0023 31.6379 21.0023 31.6315C21.0023 31.6251 21.0023 31.6187 21.0023 31.6122C21.0023 31.6057 21.0023 31.5993 21.0023 31.5928C21.0023 31.5862 21.0023 31.5797 21.0023 31.5732C21.0023 31.5666 21.0023 31.56 21.0023 31.5534C21.0023 31.5468 21.0023 31.5402 21.0023 31.5335C21.0023 31.5269 21.0023 31.5202 21.0023 31.5135C21.0023 31.5068 21.0023 31.5001 21.0023 31.4934C21.0023 31.4866 21.0023 31.4798 21.0023 31.4731C21.0023 31.4663 21.0023 31.4594 21.0023 31.4526C21.0023 31.4458 21.0023 31.4389 21.0023 31.432C21.0023 31.4251 21.0023 31.4182 21.0023 31.4113C21.0023 31.4044 21.0023 31.3974 21.0023 31.3904C21.0023 31.3834 21.0023 31.3764 21.0023 31.3694C21.0023 31.3624 21.0023 31.3553 21.0023 31.3483C21.0023 31.3412 21.0023 31.3341 21.0023 31.327C21.0023 31.3199 21.0023 31.3127 21.0023 31.3056C21.0023 31.2984 21.0023 31.2912 21.0023 31.284C21.0023 31.2768 21.0023 31.2696 21.0023 31.2624C21.0023 31.2551 21.0023 31.2478 21.0023 31.2405C21.0023 31.2333 21.0023 31.2259 21.0023 31.2186C21.0023 31.2113 21.0023 31.2039 21.0023 31.1965C21.0023 31.1891 21.0023 31.1817 21.0023 31.1743C21.0023 31.1669 21.0023 31.1595 21.0023 31.152C21.0023 31.1445 21.0023 31.137 21.0023 31.1295C21.0023 31.122 21.0023 31.1145 21.0023 31.1069C21.0023 31.0994 21.0023 31.0918 21.0023 31.0842C21.0023 31.0766 21.0023 31.069 21.0023 31.0614C21.0023 31.0537 21.0023 31.0461 21.0023 31.0384C21.0023 31.0307 21.0023 31.023 21.0023 31.0153C21.0023 31.0076 21.0023 30.9999 21.0023 30.9921C21.0023 30.9843 21.0023 30.9766 21.0023 30.9688C21.0023 30.961 21.0023 30.9531 21.0023 30.9453C21.0023 30.9375 21.0023 30.9296 21.0023 30.9217C21.0023 30.9138 21.0023 30.9059 21.0023 30.898C21.0023 30.8901 21.0023 30.8822 21.0023 30.8742C21.0023 30.8662 21.0023 30.8583 21.0023 30.8503C21.0023 30.8423 21.0023 30.8342 21.0023 30.8262C21.0023 30.8182 21.0023 30.8101 21.0023 30.802C21.0023 30.794 21.0023 30.7859 21.0023 30.7777C21.0023 30.7696 21.0023 30.7615 21.0023 30.7533C21.0023 30.7452 21.0023 30.737 21.0023 30.7288C21.0023 30.7206 21.0023 30.7124 21.0023 30.7042C21.0023 30.696 21.0023 30.6877 21.0023 30.6795C21.0023 30.6712 21.0023 30.6629 21.0023 30.6546C21.0023 30.6463 21.0023 30.638 21.0023 30.6296C21.0023 30.6213 21.0023 30.6129 21.0023 30.6046C21.0023 30.5962 21.0023 30.5878 21.0023 30.5794C21.0023 30.571 21.0023 30.5625 21.0023 30.5541C21.0023 30.5456 21.0023 30.5372 21.0023 30.5287C21.0023 30.5202 21.0023 30.5117 21.0023 30.5032C21.0023 30.4947 21.0023 30.4861 21.0023 30.4776C21.0023 30.469 21.0023 30.4604 21.0023 30.4519C21.0023 30.4433 21.0023 30.4347 21.0023 30.426C21.0023 30.4174 21.0023 30.4088 21.0023 30.4001C21.0023 30.3915 21.0023 30.3828 21.0023 30.3741C21.0023 30.3654 21.0023 30.3567 21.0023 30.348C21.0023 30.3392 21.0023 30.3305 21.0023 30.3217C21.0023 30.313 21.0023 30.3042 21.0023 30.2954C21.0023 30.2866 21.0023 30.2778 21.0023 30.269C21.0023 30.2602 21.0023 30.2513 21.0023 30.2425C21.0023 30.2336 21.0023 30.2247 21.0023 30.2158C21.0023 30.2069 21.0023 30.198 21.0023 30.1891C21.0023 30.1802 21.0023 30.1713 21.0023 30.1623C21.0023 30.1534 21.0023 30.1444 21.0023 30.1354C21.0023 30.1264 21.0023 30.1174 21.0023 30.1084C21.0023 30.0994 21.0023 30.0903 21.0023 30.0813C21.0023 30.0723 21.0023 30.0632 21.0023 30.0541C21.0023 30.045 21.0023 30.0359 21.0023 30.0268C21.0023 30.0177 21.0023 30.0086 21.0023 29.9995C21.0023 29.9903 21.0023 29.9812 21.0023 29.972C21.0023 29.9628 21.0023 29.9537 21.0023 29.9445C21.0023 29.9353 21.0023 29.9261 21.0023 29.9168C21.0023 29.9076 21.0023 29.8984 21.0023 29.8891C21.0023 29.8799 21.0023 29.8706 21.0023 29.8613C21.0023 29.852 21.0023 29.8427 21.0023 29.8334C21.0023 29.8241 21.0023 29.8148 21.0023 29.8054C21.0023 29.7961 21.0023 29.7867 21.0023 29.7774C21.0023 29.768 21.0023 29.7586 21.0023 29.7492C21.0023 29.7398 21.0023 29.7304 21.0023 29.721C21.0023 29.7116 21.0023 29.7021 21.0023 29.6927C21.0023 29.6832 21.0023 29.6738 21.0023 29.6643C21.0023 29.6548 21.0023 29.6453 21.0023 29.6358C21.0023 29.6263 21.0023 29.6168 21.0023 29.6073C21.0023 29.5978 21.0023 29.5882 21.0023 29.5787C21.0023 29.5691 21.0023 29.5595 21.0023 29.55C21.0023 29.5404 21.0023 29.5308 21.0023 29.5212C21.0023 29.5116 21.0023 29.502 21.0023 29.4923C21.0023 29.4827 21.0023 29.4731 21.0023 29.4634C21.0023 29.4537 21.0023 29.4441 21.0023 29.4344C21.0023 29.4247 21.0023 29.415 21.0023 29.4053C21.0023 29.3956 21.0023 29.3859 21.0023 29.3762C21.0023 29.3665 21.0023 29.3567 21.0023 29.347C21.0023 29.3372 21.0023 29.3274 21.0023 29.3177C21.0023 29.3079 21.0023 29.2981 21.0023 29.2883C21.0023 29.2785 21.0023 29.2687 21.0023 29.2589C21.0023 29.2491 21.0023 29.2392 21.0023 29.2294C21.0023 29.2196 21.0023 29.2097 21.0023 29.1998C21.0023 29.19 21.0023 29.1801 21.0023 29.1702C21.0023 29.1603 21.0023 29.1504 21.0023 29.1405C21.0023 29.1306 21.0023 29.1207 21.0023 29.1108C21.0023 29.1008 21.0023 29.0909 21.0023 29.0809C21.0023 29.071 21.0023 29.061 21.0023 29.0511C21.0023 29.0411 21.0023 29.0311 21.0023 29.0211C21.0023 29.0111 21.0023 29.0011 21.0023 28.9911C21.0023 28.9811 21.0023 28.9711 21.0023 28.9611C21.0023 28.951 21.0023 28.941 21.0023 28.9309C21.0023 28.9209 21.0023 28.9108 21.0023 28.9008C21.0023 28.8907 21.0023 28.8806 21.0023 28.8705C21.0023 28.8604 21.0023 28.8503 21.0023 28.8402C21.0023 28.8301 21.0023 28.82 21.0023 28.8099C21.0023 28.7997 21.0023 28.7896 21.0023 28.7795C21.0023 28.7693 21.0023 28.7592 21.0023 28.749C21.0023 28.7388 21.0023 28.7287 21.0023 28.7185C21.0023 28.7083 21.0023 28.6981 21.0023 28.6879C21.0023 28.6777 21.0023 28.6675 21.0023 28.6573C21.0023 28.6471 21.0023 28.6369 21.0023 28.6266C21.0023 28.6164 21.0023 28.6061 21.0023 28.5959C21.0023 28.5857 21.0023 28.5754 21.0023 28.5651C21.0023 28.5549 21.0023 28.5446 21.0023 28.5343C21.0023 28.524 21.0023 28.5137 21.0023 28.5034C21.0023 28.4932 21.0023 28.4828 21.0023 28.4725C21.0023 28.4622 21.0023 28.4519 21.0023 28.4416C21.0023 28.4313 21.0023 28.4209 21.0023 28.4106C21.0023 28.4002 21.0023 28.3899 21.0023 28.3795C21.0023 28.3692 21.0023 28.3588 21.0023 28.3484C21.0023 28.3381 21.0023 28.3277 21.0023 28.3173C21.0023 28.3069 21.0023 28.2965 21.0023 28.2861C21.0023 28.2757 21.0023 28.2653 21.0023 28.2549C21.0023 28.2445 21.0023 28.2341 21.0023 28.2237C21.0023 28.2132 21.0023 28.2028 21.0023 28.1924C21.0023 28.1819 21.0023 28.1715 21.0023 28.161C21.0023 28.1506 21.0023 28.1401 21.0023 28.1297C21.0023 28.1192 21.0023 28.1087 21.0023 28.0983C21.0023 28.0878 21.0023 28.0773 21.0023 28.0668C21.0023 28.0563 21.0023 28.0458 21.0023 28.0353C21.0023 28.0248 21.0023 28.0143 21.0023 28.0038C21.0023 27.9933 21.0023 27.9828 21.0023 27.9723C21.0023 27.9618 21.0023 27.9512 21.0023 27.9407C21.0023 27.9302 21.0023 27.9196 21.0023 27.9091C21.0023 27.8986 21.0023 27.888 21.0023 27.8775C21.0023 27.8669 21.0023 27.8564 21.0023 27.8458C21.0023 27.8352 21.0023 27.8247 21.0023 27.8141C21.0023 27.8035 21.0023 27.793 21.0023 27.7824C21.0023 27.7718 21.0023 27.7612 21.0023 27.7506C21.0023 27.74 21.0023 27.7294 21.0023 27.7188C21.0023 27.7082 21.0023 27.6976 21.0023 27.687C21.0023 27.6764 21.0023 27.6658 21.0023 27.6552C21.0023 27.6446 21.0023 27.634 21.0023 27.6234C21.0023 27.6127 21.0023 27.6021 21.0023 27.5915C21.0023 27.5808 21.0023 27.5702 21.0023 27.5596C21.0023 27.5489 21.0023 27.5383 21.0023 27.5277C21.0023 27.517 21.0023 27.5064 21.0023 27.4957C21.0023 27.4851 21.0023 27.4744 21.0023 27.4638C21.0023 27.4531 21.0023 27.4424 21.0023 27.4318C21.0023 27.4211 21.0023 27.4104 21.0023 27.3998C21.0023 27.3891 21.0023 27.3784 21.0023 27.3678C21.0023 27.3571 21.0023 27.3464 21.0023 27.3357C21.0023 27.3251 21.0023 27.3144 21.0023 27.3037C21.0023 27.293 21.0023 27.2823 21.0023 27.2716C21.0023 27.2609 21.0023 27.2502 21.0023 27.2396C21.0023 27.2289 21.0023 27.2182 21.0023 27.2075C21.0023 27.1968 21.0023 27.1861 21.0023 27.1754C21.0023 27.1647 21.0023 27.154 21.0023 27.1433C21.0023 27.1326 21.0023 27.1218 21.0023 27.1111C21.0023 27.1004 21.0023 27.0897 21.0023 27.079C21.0023 27.0683 21.0023 27.0576 21.0023 27.0469C21.0023 27.0362 21.0023 27.0254 21.0023 27.0147C21.0023 27.004 21.0023 26.9933 21.0023 26.9826C21.0023 26.9718 21.0023 26.9611 21.0023 26.9504C21.0023 26.9397 21.0023 26.929 21.0023 26.9182C21.0023 26.9075 21.0023 26.8968 21.0023 26.8861C21.0023 26.8753 21.0023 26.8646 21.0023 26.8539C21.0023 26.8432 21.0023 26.8324 21.0023 26.8217C21.0023 26.811 21.0023 26.8003 21.0023 26.7895C21.0023 26.7788 21.0023 26.7681 21.0023 26.7574C21.0023 26.7466 21.0023 26.7359 21.0023 26.7252C21.0023 26.7144 21.0023 26.7037 21.0023 26.693C21.0023 26.6823 21.0023 26.6715 21.0023 26.6608C21.0023 26.6501 21.0023 26.6394 21.0023 26.6286C21.0023 26.6179 21.0023 26.6072 21.0023 26.5965C21.0023 26.5857 21.0023 26.575 21.0023 26.5643C21.0023 26.5536 21.0023 26.5429 21.0023 26.5321C21.0023 26.5214 21.0023 26.5107 21.0023 26.5C21.0023 26.4893 21.0023 26.4785 21.0023 26.4678C21.0023 26.4571 21.0023 26.4464 21.0023 26.4357C21.0023 26.425 21.0023 26.4142 21.0023 26.4035C21.0023 26.3928 21.0023 26.3821 21.0023 26.3714C21.0023 26.3607 21.0023 26.35 21.0023 26.3393C21.0023 26.3286 21.0023 26.3179 21.0023 26.3072C21.0023 26.2965 21.0023 26.2858 21.0023 26.2751C21.0023 26.2644 21.0023 26.2537 21.0023 26.243C21.0023 26.2323 21.0023 26.2216 21.0023 26.2109C21.0023 26.2002 21.0023 26.1896 21.0023 26.1789C21.0023 26.1682 21.0023 26.1575 21.0023 26.1468C21.0023 26.1362 21.0023 26.1255 21.0023 26.1148C21.0023 26.1041 21.0023 26.0935 21.0023 26.0828C21.0023 26.0721 21.0023 26.0615 21.0023 26.0508C21.0023 26.0401 21.0023 26.0295 21.0023 26.0188C21.0023 26.0082 21.0023 25.9975 21.0023 25.9869C21.0023 25.9762 21.0023 25.9656 21.0023 25.9549C21.0023 25.9443 21.0023 25.9337 21.0023 25.923C21.0023 25.9124 21.0023 25.9018 21.0023 25.8911C21.0023 25.8805 21.0023 25.8699 21.0023 25.8593C21.0023 25.8486 21.0023 25.838 21.0023 25.8274C21.0023 25.8168 21.0023 25.8062 21.0023 25.7956C21.0023 25.785 21.0023 25.7744 21.0023 25.7638C21.0023 25.7532 21.0023 25.7426 21.0023 25.732C21.0023 25.7214 21.0023 25.7109 21.0023 25.7003C21.0023 25.6897 21.0023 25.6791 21.0023 25.6686C21.0023 25.658 21.0023 25.6474 21.0023 25.6369C21.0023 25.6263 21.0023 25.6158 21.0023 25.6052C21.0023 25.5947 21.0023 25.5841 21.0023 25.5736C21.0023 25.563 21.0023 25.5525 21.0023 25.542C21.0023 25.5314 21.0023 25.5209 21.0023 25.5104C21.0023 25.4999 21.0023 25.4894 21.0023 25.4789C21.0023 25.4684 21.0023 25.4579 21.0023 25.4474C21.0023 25.4369 21.0023 25.4264 21.0023 25.4159C21.0023 25.4054 21.0023 25.3949 21.0023 25.3845C21.0023 25.374 21.0023 25.3635 21.0023 25.3531C21.0023 25.3426 21.0023 25.3322 21.0023 25.3217C21.0023 25.3113 21.0023 25.3008 21.0023 25.2904C21.0023 25.28 21.0023 25.2695 21.0023 25.2591C21.0023 25.2487 21.0023 25.2383 21.0023 25.2279C21.0023 25.2175 21.0023 25.207 21.0023 25.1967C21.0023 25.1863 21.0023 25.1759 21.0023 25.1655C21.0023 25.1551 21.0023 25.1447 21.0023 25.1344C21.0023 25.124 21.0023 25.1136 21.0023 25.1033C21.0023 25.0929 21.0023 25.0826 21.0023 25.0723C21.0023 25.0619 21.0023 25.0516 21.0023 25.0413C21.0023 25.0309 21.0023 25.0206 21.0023 25.0103C21.0023 25 21.0023 24.9897 21.0023 24.9794C21.0023 24.9691 21.0023 24.9588 21.0023 24.9486C21.0023 24.9383 21.0023 24.928 21.0023 24.9178C21.0023 24.9075 21.0023 24.8972 21.0023 24.887C21.0023 24.8768 21.0023 24.8665 21.0023 24.8563C21.0023 24.8461 21.0023 24.8358 21.0023 24.8256C21.0023 24.8154 21.0023 24.8052 21.0023 24.795C21.0023 24.7848 21.0023 24.7747 21.0023 24.7645C21.0023 24.7543 21.0023 24.7441 21.0023 24.734C21.0023 24.7238 21.0023 24.7137 21.0023 24.7035C21.0023 24.6934 21.0023 24.6833 21.0023 24.6731C21.0023 24.663 21.0023 24.6529 21.0023 24.6428C21.0023 24.6327 21.0023 24.6226 21.0023 24.6125C21.0023 24.6024 21.0023 24.5924 21.0023 24.5823C21.0023 24.5722 21.0023 24.5622 21.0023 24.5521C21.0023 24.5421 21.0023 24.532 21.0023 24.522C21.0023 24.512 21.0023 24.502 21.0023 24.492C21.0023 24.482 21.0023 24.472 21.0023 24.462C21.0023 24.452 21.0023 24.442 21.0023 24.432C21.0023 24.4221 21.0023 24.4121 21.0023 24.4022C21.0023 24.3922 21.0023 24.3823 21.0023 24.3724C21.0023 24.3625 21.0023 24.3525 21.0023 24.3426C21.0023 24.3327 21.0023 24.3228 21.0023 24.313C21.0023 24.3031 21.0023 24.2932 21.0023 24.2834C21.0023 24.2735 21.0023 24.2636 21.0023 24.2538C21.0023 24.244 21.0023 24.2342 21.0023 24.2243C21.0023 24.2145 21.0023 24.2047 21.0023 24.1949C21.0023 24.1851 21.0023 24.1754 21.0023 24.1656C21.0023 24.1558 21.0023 24.1461 21.0023 24.1363C21.0023 24.1266 21.0023 24.1168 21.0023 24.1071C21.0023 24.0974 21.0023 24.0877 21.0023 24.078C21.0023 24.0683 21.0023 24.0586 21.0023 24.0489C21.0023 24.0393 21.0023 24.0296 21.0023 24.02C21.0023 24.0103 21.0023 24.0007 21.0023 23.991C21.0023 23.9814 21.0023 23.9718 21.0023 23.9622C21.0023 23.9526 21.0023 23.943 21.0023 23.9335C21.0023 23.9239 21.0023 23.9143 21.0023 23.9048C21.0023 23.8952 21.0023 23.8857 21.0023 23.8762C21.0023 23.8666 21.0023 23.8571 21.0023 23.8476C21.0023 23.8381 21.0023 23.8287 21.0023 23.8192C21.0023 23.8097 21.0023 23.8003 21.0023 23.7908C21.0023 23.7814 21.0023 23.772 21.0023 23.7625C21.0023 23.7531 21.0023 23.7437 21.0023 23.7343C21.0023 23.7249 21.0023 23.7156 21.0023 23.7062C21.0023 23.6968 21.0023 23.6875 21.0023 23.6782C21.0023 23.6688 21.0023 23.6595 21.0023 23.6502C21.0023 23.6409 21.0023 23.6316 21.0023 23.6223C21.0023 23.6131 21.0023 23.6038 21.0023 23.5946C21.0023 23.5853 21.0023 23.5761 21.0023 23.5669C21.0023 23.5576 21.0023 23.5484 21.0023 23.5392C21.0023 23.5301 21.0023 23.5209 21.0023 23.5117C21.0023 23.5026 21.0023 23.4934 21.0023 23.4843C21.0023 23.4752 21.0023 23.466 21.0023 23.4569C21.0023 23.4478 21.0023 23.4388 21.0023 23.4297C21.0023 23.4206 21.0023 23.4116 21.0023 23.4025C21.0023 23.3935 21.0023 23.3845 21.0023 23.3754C21.0023 23.3664 21.0023 23.3574 21.0023 23.3485C21.0023 23.3395 21.0023 23.3305 21.0023 23.3216C21.0023 23.3126 21.0023 23.3037 21.0023 23.2948C21.0023 23.2859 21.0023 23.277 21.0023 23.2681C21.0023 23.2592 21.0023 23.2504 21.0023 23.2415C21.0023 23.2327 21.0023 23.2238 21.0023 23.215C21.0023 23.2062 21.0023 23.1974 21.0023 23.1886C21.0023 23.1798 21.0023 23.1711 21.0023 23.1623C21.0023 23.1536 21.0023 23.1448 21.0023 23.1361C21.0023 23.1274 21.0023 23.1187 21.0023 23.11C21.0023 23.1013 21.0023 23.0927 21.0023 23.084C21.0023 23.0754 21.0023 23.0667 21.0023 23.0581C21.0023 23.0495 21.0023 23.0409 21.0023 23.0323C21.0023 23.0237 21.0023 23.0152 21.0023 23.0066C21.0023 22.9981 21.0023 22.9896 21.0023 22.981C21.0023 22.9725 21.0023 22.964 21.0023 22.9556C21.0023 22.9471 21.0023 22.9386 21.0023 22.9302C21.0023 22.9218 21.0023 22.9133 21.0023 22.9049C21.0023 22.8965 21.0023 22.8881 21.0023 22.8798C21.0023 22.8714 21.0023 22.8631 21.0023 22.8547C21.0023 22.8464 21.0023 22.8381 21.0023 22.8298C21.0023 22.8215 21.0023 22.8132 21.0023 22.805C21.0023 22.7967 21.0023 22.7885 21.0023 22.7803C21.0023 22.772 21.0023 22.7638 21.0023 22.7557C21.0023 22.7475 21.0023 22.7393 21.0023 22.7312C21.0023 22.723 21.0023 22.7149 21.0023 22.7068C21.0023 22.6987 21.0023 22.6906 21.0023 22.6825C21.0023 22.6745 21.0023 22.6664 21.0023 22.6584C21.0023 22.6504 21.0023 22.6424 21.0023 22.6344C21.0023 22.6264 21.0023 22.6184 21.0023 22.6105C21.0023 22.6025 21.0023 22.5946 21.0023 22.5867C21.0023 22.5788 21.0023 22.5709 21.0023 22.563C21.0023 22.5551 21.0023 22.5473 21.0023 22.5394C21.0023 22.5316 21.0023 22.5238 21.0023 22.516C21.0023 22.5082 21.0023 22.5005 21.0023 22.4927C21.0023 22.485 21.0023 22.4772 21.0023 22.4695C21.0023 22.4618 21.0023 22.4541 21.0023 22.4465C21.0023 22.4388 21.0023 22.4312 21.0023 22.4235C21.0023 22.4159 21.0023 22.4083 21.0023 22.4007C21.0023 22.3931 21.0023 22.3856 21.0023 22.378C21.0023 22.3705 21.0023 22.363 21.0023 22.3555C21.0023 22.348 21.0023 22.3405 21.0023 22.333C21.0023 22.3256 21.0023 22.3182 21.0023 22.3107C21.0023 22.3033 21.0023 22.2959 21.0023 22.2886C21.0023 22.2812 21.0023 22.2739 21.0023 22.2665C21.0023 22.2592 21.0023 22.2519 21.0023 22.2446C21.0023 22.2373 21.0023 22.2301 21.0023 22.2228C21.0023 22.2156 21.0023 22.2084 21.0023 22.2012C21.0023 22.194 21.0023 22.1868 21.0023 22.1797C21.0023 22.1725 21.0023 22.1654 21.0023 22.1583C21.0023 22.1512 21.0023 22.1441 21.0023 22.1371C21.0023 22.13 21.0023 22.123 21.0023 22.116C21.0023 22.1089 21.0023 22.102 21.0023 22.095C21.0023 22.088 21.0023 22.0811 21.0023 22.0742C21.0023 22.0672 21.0023 22.0603 21.0023 22.0535C21.0023 22.0466 21.0023 22.0397 21.0023 22.0329C21.0023 22.0261 21.0023 22.0193 21.0023 22.0125C21.0023 22.0057 21.0023 21.999 21.0023 21.9922C21.0023 21.9855 21.0023 21.9788 21.0023 21.9721C21.0023 21.9654 21.0023 21.9588 21.0023 21.9521C21.0023 21.9455 21.0023 21.9389 21.0023 21.9323C21.0023 21.9257 21.0023 21.9191 21.0023 21.9126C21.0023 21.906 21.0023 21.8995 21.0023 21.893C21.0023 21.8865 21.0023 21.8801 21.0023 21.8736C21.0023 21.8672 21.0023 21.8608 21.0023 21.8544C21.0023 21.848 21.0023 21.8416 21.0023 21.8352C21.0023 21.8289 21.0023 21.8226 21.0023 21.8163C21.0023 21.81 21.0023 21.8037 21.0023 21.7975C21.0023 21.7912 21.0023 21.785 21.0023 21.7788C21.0023 21.7726 21.0023 21.7664 21.0023 21.7603C21.0023 21.7542 21.0023 21.748 21.0023 21.7419C21.0023 21.7358 21.0023 21.7298 21.0023 21.7237C21.0023 21.7177 21.0023 21.7117 21.0023 21.7057C21.0023 21.6997 21.0023 21.6937 21.0023 21.6878C21.0023 21.6818 21.0023 21.6759 21.0023 21.67C21.0023 21.6642 21.0023 21.6583 21.0023 21.6525C21.0023 21.6466 21.0023 21.6408 21.0023 21.635C21.0023 21.6293 21.0023 21.6235 21.0023 21.6178C21.0023 21.612 21.0023 21.6063 21.0023 21.6007C21.0023 21.595 21.0023 21.5893 21.0023 21.5837C21.0023 21.5781 21.0023 21.5725 21.0023 21.5669C21.0023 21.5613 21.0023 21.5558 21.0023 21.5503C21.0023 21.5448 21.0023 21.5393 21.0023 21.5338C21.0023 21.5284 21.0023 21.5229 21.0023 21.5175C21.0023 21.5121 21.0023 21.5067 21.0023 21.5014C21.0023 21.496 21.0023 21.4907 21.0023 21.4854C21.0023 21.4801 21.0023 21.4748 21.0023 21.4696C21.0023 21.4644 21.0023 21.4591 21.0023 21.454C21.0023 21.4488 21.0023 21.4436 21.0023 21.4385C21.0023 21.4333 21.0023 21.4282 21.0023 21.4232C21.0023 21.4181 21.0023 21.413 21.0023 21.408C21.0023 21.403 21.0023 21.398 21.0023 21.3931C21.0023 21.3881 21.0023 21.3832 21.0023 21.3783C21.0023 21.3734 21.0023 21.3685 21.0023 21.3636C21.0023 21.3588 21.0023 21.354 21.0023 21.3492C21.0023 21.3444 21.0023 21.3396 21.0023 21.3349C21.0023 21.3302 21.0023 21.3255 21.0023 21.3208C21.0023 21.3161 21.0023 21.3115 21.0023 21.3069C21.0023 21.3023 21.0023 21.2977 21.0023 21.2931C21.0023 21.2886 21.0023 21.284 21.0023 21.2795C21.0023 21.275 21.0023 21.2706 21.0023 21.2661C21.0023 21.2617 21.0023 21.2573 21.0023 21.2529C21.0023 21.2485 21.0023 21.2442 21.0023 21.2399C21.0023 21.2356 21.0023 21.2313 21.0023 21.227C21.0023 21.2228 21.0023 21.2185 21.0023 21.2143C21.0023 21.2101 21.0023 21.206 21.0023 21.2018C21.0023 21.1977 21.0023 21.1936 21.0023 21.1895C21.0023 21.1854 21.0023 21.1814 21.0023 21.1774C21.0023 21.1734 21.0023 21.1694 21.0023 21.1654C21.0023 21.1615 21.0023 21.1576 21.0023 21.1537C21.0023 21.1498 21.0023 21.1459 21.0023 21.1421C21.0023 21.1383 21.0023 21.1345 21.0023 21.1307C21.0023 21.1269 21.0023 21.1232 21.0023 21.1195C21.0023 21.1158 21.0023 21.1121 21.0023 21.1085C21.0023 21.1048 21.0023 21.1012 21.0023 21.0976C21.0023 21.0941 21.0023 21.0905 21.0023 21.087C21.0023 21.0835 21.0023 21.08 21.0023 21.0766C21.0023 21.0731 21.0023 21.0697 21.0023 21.0663C21.0023 21.0629 21.0023 21.0596 21.0023 21.0562C21.0023 21.0529 21.0023 21.0496 21.0023 21.0464C21.0023 21.0431 21.0023 21.0399 21.0023 21.0367C21.0023 21.0335 21.0023 21.0303 21.0023 21.0272C21.0023 21.0241 21.0023 21.021 21.0023 21.0179C21.0023 21.0149 21.0023 21.0118 21.0023 21.0089C21.0023 21.0059 21.0023 21.0029 21.0023 21H19.0023ZM23 17C21.9246 17 20.9335 17.5277 20.2312 18.2307C19.5288 18.9338 19.0023 19.9252 19.0023 21H21.0023C21.0023 20.5747 21.2246 20.0661 21.6461 19.6442C22.0676 19.2223 22.5754 19 23 19L23 17ZM31.4006 47H20V49H31.4006V47Z" fill="#009DC4"/>
</svg>
