<svg width="98" height="98" viewBox="0 0 98 98" fill="none" xmlns="http://www.w3.org/2000/svg">
<path d="M47.4006 48.8654C50.7236 48.8654 53.4481 46.8424 53.4481 44.0485V39.0883C53.4481 36.2933 50.7293 34 47.4006 34C47.4006 34 42 34 40 34C38 34 36 36 36 38C36 40 36.0023 48.6746 36.0023 48.6746L36 64H47.4006C50.7236 64 53.4481 61.7078 53.4481 58.9139V53.9538C53.4481 51.1587 50.7293 48.8654 47.4006 48.8654ZM47.4006 48.8654H36.0023M97 49C97 75.5097 75.5097 97 49 97C22.4903 97 1 75.5097 1 49C1 22.4903 22.4903 1 49 1C75.5097 1 97 22.4903 97 49ZM57.9655 61.682C57.9655 60.6961 58.9741 59.7102 59.9828 59.7102C60.9914 59.7102 62 60.6961 62 61.682C62 62.6679 60.9914 63.6538 59.9828 63.6538C58.9741 63.6538 57.9655 62.6679 57.9655 61.682Z" stroke="#009DC4" stroke-width="1.5" stroke-linecap="round" stroke-linejoin="round"/>
</svg>
