<svg width="98" height="98" viewBox="0 0 98 98" fill="none" xmlns="http://www.w3.org/2000/svg">
<path d="M29.6368 58.3104L29.4834 59.0446C29.5338 59.0551 29.5852 59.0604 29.6368 59.0604V58.3104ZM27.8449 56.537L27.0948 56.537L27.0949 56.5456L27.8449 56.537ZM62.2733 34.2508L62.2868 35.0007L62.287 35.0007L62.2733 34.2508ZM70.5087 56.537L71.2587 56.5471V56.537H70.5087ZM68.7168 58.3116V59.0617L68.7267 59.0616L68.7168 58.3116ZM63.7081 57.5616C63.2938 57.5616 62.9581 57.8974 62.9581 58.3116C62.9581 58.7258 63.2938 59.0616 63.7081 59.0616V57.5616ZM57.9692 59.0616C58.3834 59.0616 58.7192 58.7258 58.7192 58.3116C58.7192 57.8974 58.3834 57.5616 57.9692 57.5616V59.0616ZM40.5038 57.5616C40.0896 57.5616 39.7538 57.8974 39.7538 58.3116C39.7538 58.7258 40.0896 59.0616 40.5038 59.0616V57.5616ZM60.8398 56.9608L60.8401 57.7108L60.8398 56.9608ZM57.161 60.6053L57.911 60.6053L57.161 60.6053ZM34.9115 58.0282L35.4393 58.5611L34.9115 58.0282ZM27.8449 47.2536L27.8445 46.5036C27.4304 46.5038 27.0948 46.8397 27.0949 47.2538C27.095 47.6679 27.4307 48.0036 27.8449 48.0036L27.8449 47.2536ZM70.3758 47.2331L70.3783 47.9831C70.7921 47.9817 71.1266 47.6455 71.1258 47.2317C71.125 46.8179 70.7892 46.4829 70.3754 46.4831L70.3758 47.2331ZM41.8886 34.3703H42.6386C42.6386 33.9562 42.303 33.6205 41.8889 33.6203C41.4749 33.6201 41.139 33.9555 41.1386 34.3696L41.8886 34.3703ZM41.8764 47.2415L41.1264 47.2408C41.126 47.6541 41.46 47.9898 41.8733 47.9915C42.2865 47.9933 42.6233 47.6603 42.6264 47.2471L41.8764 47.2415ZM56.7201 34.3703C56.7201 33.9561 56.3843 33.6203 55.9701 33.6203C55.5559 33.6203 55.2201 33.9561 55.2201 34.3703H56.7201ZM55.208 47.2305C55.2018 47.6446 55.5326 47.9853 55.9468 47.9915C56.361 47.9976 56.7017 47.6668 56.7078 47.2526L55.208 47.2305ZM34.6548 58.3104L35.2352 58.7854L34.6548 58.3104ZM96.25 49C96.25 75.0955 75.0955 96.25 49 96.25V97.75C75.9239 97.75 97.75 75.9239 97.75 49H96.25ZM49 96.25C22.9045 96.25 1.75 75.0955 1.75 49H0.25C0.25 75.9239 22.0761 97.75 49 97.75V96.25ZM1.75 49C1.75 22.9045 22.9045 1.75 49 1.75V0.25C22.0761 0.25 0.25 22.0761 0.25 49H1.75ZM49 1.75C75.0955 1.75 96.25 22.9045 96.25 49H97.75C97.75 22.0761 75.9239 0.25 49 0.25V1.75ZM29.6368 58.3104C29.7901 57.5763 29.7902 57.5763 29.7903 57.5763C29.7903 57.5763 29.7904 57.5763 29.7904 57.5763C29.7905 57.5764 29.7906 57.5764 29.7907 57.5764C29.7909 57.5764 29.791 57.5764 29.791 57.5764C29.7911 57.5765 29.7909 57.5764 29.7906 57.5764C29.7899 57.5762 29.7884 57.5759 29.7861 57.5754C29.7816 57.5744 29.7739 57.5727 29.7634 57.5703C29.7424 57.5655 29.7107 57.558 29.6709 57.548C29.5907 57.5276 29.4819 57.4978 29.3659 57.4597C29.248 57.421 29.1344 57.3776 29.0405 57.3321C28.9374 57.2823 28.9016 57.2508 28.9033 57.2524L27.8482 58.3186C28.0173 58.486 28.2229 58.6029 28.3876 58.6826C28.5615 58.7667 28.7423 58.8337 28.8978 58.8848C29.0552 58.9365 29.1988 58.9757 29.3027 59.0021C29.355 59.0153 29.3982 59.0255 29.4292 59.0326C29.4447 59.0362 29.4573 59.0389 29.4664 59.0409C29.471 59.0419 29.4747 59.0427 29.4776 59.0433C29.479 59.0436 29.4802 59.0439 29.4812 59.0441C29.4817 59.0442 29.4821 59.0443 29.4825 59.0444C29.4827 59.0444 29.4828 59.0444 29.483 59.0445C29.4831 59.0445 29.4832 59.0445 29.4832 59.0445C29.4833 59.0445 29.4834 59.0446 29.6368 58.3104ZM28.9033 57.2524C28.7078 57.059 28.5979 56.7989 28.5948 56.5284L27.0949 56.5456C27.1026 57.2129 27.3738 57.8491 27.8482 58.3186L28.9033 57.2524ZM28.5949 56.537V36.1534H27.0949V56.537H28.5949ZM28.5949 36.1534C28.5949 35.5488 29.1117 35.0334 29.6368 35.0334V33.5334C28.1992 33.5334 27.0949 34.807 27.0949 36.1534H28.5949ZM29.6368 35.0334C45.6299 35.0334 54.1427 35.1469 62.2868 35.0007L62.2599 33.5009C54.1333 33.6468 45.6561 33.5334 29.6368 33.5334V35.0334ZM62.287 35.0007C63.618 34.9765 65.4517 35.4776 66.9662 37.2607C68.4887 39.0533 69.7587 42.2256 69.7587 47.6737H71.2587C71.2587 42.012 69.9401 38.445 68.1095 36.2897C66.271 34.125 63.9871 33.4696 62.2597 33.5009L62.287 35.0007ZM69.7587 47.6737V56.537H71.2587V47.6737H69.7587ZM69.7587 56.5269C69.7551 56.7979 69.6448 57.0582 69.4491 57.252L70.5046 58.3178C70.9783 57.8487 71.2496 57.2136 71.2586 56.5471L69.7587 56.5269ZM69.4491 57.252C69.2532 57.4461 68.987 57.558 68.7069 57.5617L68.7267 59.0616C69.3931 59.0528 70.0312 58.7867 70.5046 58.3178L69.4491 57.252ZM68.7168 57.5616H63.7081V59.0616H68.7168V57.5616ZM57.9692 57.5616H40.5038V59.0616H57.9692V57.5616ZM60.8401 57.7108C61.4212 57.7106 61.9888 57.8811 62.471 58.2L63.2984 56.9488C62.5699 56.467 61.7142 56.2105 60.8396 56.2108L60.8401 57.7108ZM62.471 58.2C62.9531 58.5188 63.3278 58.9713 63.5488 59.4993L64.9325 58.9202C64.5961 58.1164 64.027 57.4306 63.2984 56.9488L62.471 58.2ZM63.5488 59.4993C63.7698 60.0273 63.8276 60.6079 63.7152 61.1681L65.1859 61.4631C65.3572 60.6091 65.2689 59.7241 64.9325 58.9202L63.5488 59.4993ZM63.7152 61.1681C63.6028 61.7282 63.325 62.2438 62.9158 62.6492L63.9715 63.7148C64.5915 63.1005 65.0146 62.3171 65.1859 61.4631L63.7152 61.1681ZM62.9158 62.6492C62.5066 63.0546 61.9842 63.3316 61.4144 63.4439L61.7045 64.9156C62.5625 64.7465 63.3516 64.329 63.9715 63.7148L62.9158 62.6492ZM61.4144 63.4439C60.8446 63.5562 60.254 63.4986 59.7176 63.2786L59.1484 64.6665C59.9571 64.9981 60.8465 65.0847 61.7045 64.9156L61.4144 63.4439ZM59.7176 63.2786C59.1813 63.0587 58.7241 62.6867 58.403 62.2107L57.1596 63.0497C57.6473 63.7725 58.3397 64.3348 59.1484 64.6665L59.7176 63.2786ZM58.403 62.2107C58.0819 61.7349 57.911 61.1762 57.911 60.6053L56.411 60.6053C56.411 61.4762 56.6718 62.3268 57.1596 63.0497L58.403 62.2107ZM57.911 60.6053C57.911 59.8401 58.2178 59.1048 58.7663 58.5615L57.7106 57.4958C56.8793 58.3194 56.411 59.4377 56.411 60.6053L57.911 60.6053ZM58.7663 58.5615C59.315 58.0178 60.0608 57.711 60.8401 57.7108L60.8396 56.2108C59.6672 56.2111 58.5416 56.6726 57.7106 57.4958L58.7663 58.5615ZM37.5137 57.7108C38.0948 57.7108 38.6623 57.8814 39.1444 58.2004L39.9721 56.9495C39.2438 56.4676 38.3883 56.2108 37.5137 56.2108V57.7108ZM39.1444 58.2004C39.6263 58.5194 40.0008 58.9719 40.2217 59.5L41.6056 58.9212C41.2694 58.1174 40.7005 57.4315 39.9721 56.9495L39.1444 58.2004ZM40.2217 59.5C40.4426 60.028 40.5002 60.6086 40.3877 61.1686L41.8584 61.464C42.0299 60.6101 41.9418 59.7251 41.6056 58.9212L40.2217 59.5ZM40.3877 61.1686C40.2752 61.7287 39.9974 62.2442 39.5881 62.6495L40.6437 63.7153C41.2637 63.1012 41.6869 62.3179 41.8584 61.464L40.3877 61.1686ZM39.5881 62.6495C39.1788 63.0549 38.6565 63.3317 38.0867 63.444L38.3766 64.9157C39.2346 64.7467 40.0236 64.3293 40.6437 63.7153L39.5881 62.6495ZM38.0867 63.444C37.5169 63.5562 36.9264 63.4986 36.3901 63.2786L35.8208 64.6663C36.6294 64.998 37.5187 65.0847 38.3766 64.9157L38.0867 63.444ZM36.3901 63.2786C35.8538 63.0586 35.3967 62.6866 35.0756 62.2106L33.8321 63.0496C34.3198 63.7724 35.0121 64.3346 35.8208 64.6663L36.3901 63.2786ZM35.0756 62.2106C34.7545 61.7348 34.5837 61.1762 34.5837 60.6053H33.0837C33.0837 61.4761 33.3444 62.3267 33.8321 63.0496L35.0756 62.2106ZM35.4393 58.5611C35.9882 58.0175 36.7343 57.7108 37.5137 57.7108V56.2108C36.3411 56.2108 35.2151 56.672 34.3838 57.4953L35.4393 58.5611ZM27.8449 48.0036C32.4894 48.0036 67.0964 47.994 70.3783 47.9831L70.3733 46.4831C67.0947 46.494 32.4913 46.5036 27.8449 46.5036V48.0036ZM70.3754 46.4831L27.8445 46.5036L27.8452 48.0036L70.3762 47.9831L70.3754 46.4831ZM41.1386 34.3703C41.1386 35.5411 41.1325 46.4151 41.1264 47.236L42.6264 47.2471C42.6325 46.4189 42.6386 35.5367 42.6386 34.3703H41.1386ZM42.6264 47.2423L42.6386 34.371L41.1386 34.3696L41.1264 47.2408L42.6264 47.2423ZM55.2201 34.3703C55.2201 35.5453 55.22 46.4133 55.208 47.2305L56.7078 47.2526C56.7201 46.4207 56.7201 35.5325 56.7201 34.3703H55.2201ZM34.5837 60.6053C34.5837 59.9407 34.8151 59.2987 35.2352 58.7854L34.0744 57.8354C33.4369 58.6143 33.0837 59.5913 33.0837 60.6053H34.5837ZM35.2352 58.7854C35.2989 58.7076 35.367 58.6327 35.4393 58.5611L34.3838 57.4953C34.2743 57.6037 34.1711 57.7173 34.0744 57.8354L35.2352 58.7854ZM29.6368 59.0604H34.6548V57.5604H29.6368V59.0604Z" fill="#009DC4"/>
</svg>
